<svg xmlns="http://www.w3.org/2000/svg" width="23.406" height="23.405" viewBox="0 0 23.406 23.405">
  <g id="aprove" transform="translate(0)">
    <path id="Stroke_1" data-name="Stroke 1" d="M2.906,6.56A.875.875,0,0,1,2.285,6.3L-.493,3.526A.878.878,0,1,1,.748,2.284L2.906,4.441,7.839-.493A.878.878,0,1,1,9.081.748L3.527,6.3A.875.875,0,0,1,2.906,6.56Z" transform="translate(7.409 8.798)" fill="#28c841"/>
    <path id="Stroke_2" data-name="Stroke 2" d="M10.953-.75c4.462,0,7.262.81,9.077,2.625s2.625,4.615,2.625,9.077-.81,7.262-2.625,9.077-4.615,2.625-9.077,2.625-7.262-.81-9.077-2.625S-.75,15.415-.75,10.953.06,3.691,1.875,1.875,6.49-.75,10.953-.75Zm0,21.65c7.623,0,9.947-2.324,9.947-9.947s-2.324-9.947-9.947-9.947S1.005,3.33,1.005,10.953,3.33,20.9,10.953,20.9Z" transform="translate(0.75 0.75)" fill="#28c841"/>
  </g>
</svg>
