<svg xmlns="http://www.w3.org/2000/svg" width="15.497" height="15.498" viewBox="0 0 15.497 15.498">
  <path id="attach" d="M9.886,19.748l-.123,0A4.942,4.942,0,0,1,6.23,18.12l0,0a5.859,5.859,0,0,1,.115-7.9l5.365-5.729A.75.75,0,1,1,12.8,5.513l-5.366,5.73a4.359,4.359,0,0,0-.088,5.876,3.422,3.422,0,0,0,4.958.131l5.671-6.059a2.918,2.918,0,0,0,.017-3.949,2.389,2.389,0,0,0-3.534.023l-.01.011-5.36,5.731-.017.017a1.3,1.3,0,0,0-.018,1.8l.005.006a1.06,1.06,0,0,0,1.563-.018l.011-.012,3.99-4.262a.75.75,0,0,1,1.1,1.025l-3.985,4.256a2.56,2.56,0,0,1-3.766.04A2.79,2.79,0,0,1,8,11.973l5.347-5.718A3.889,3.889,0,0,1,19.1,6.228l0,0a4.432,4.432,0,0,1-.025,5.975l0,0-5.682,6.071-.016.017A4.944,4.944,0,0,1,9.886,19.748Z" transform="translate(-4.751 -4.25)" fill="#033b67"/>
</svg>
