<svg xmlns="http://www.w3.org/2000/svg" width="29.688" height="29.688" viewBox="0 0 29.688 29.688">
  <g id="Close_Square" data-name="Close Square" transform="translate(0 0)">
    <path id="Stroke_1" data-name="Stroke 1" d="M.363,8.59a1.113,1.113,0,0,1-.787-1.9L6.689-.424A1.113,1.113,0,0,1,8.264,1.151L1.151,8.264A1.11,1.11,0,0,1,.363,8.59Z" transform="translate(10.921 10.91)" fill="#fd5675"/>
    <path id="Stroke_2" data-name="Stroke 2" d="M7.488,8.6A1.11,1.11,0,0,1,6.7,8.276L-.424,1.151A1.113,1.113,0,0,1,1.151-.424L8.276,6.7a1.113,1.113,0,0,1-.787,1.9Z" transform="translate(10.918 10.908)" fill="#fd5675"/>
    <path id="Stroke_3" data-name="Stroke 3" d="M14.094-.75c5.66,0,9.211,1.027,11.514,3.33s3.33,5.854,3.33,11.514-1.027,9.211-3.33,11.514-5.854,3.33-11.514,3.33S4.883,27.911,2.58,25.608-.75,19.754-.75,14.094.277,4.883,2.58,2.58,8.434-.75,14.094-.75Zm0,27.461c9.669,0,12.617-2.948,12.617-12.617S23.763,1.477,14.094,1.477,1.477,4.425,1.477,14.094,4.425,26.711,14.094,26.711Z" transform="translate(0.75 0.75)" fill="#fd5675"/>
  </g>
</svg>
