<svg id="Close_Square" data-name="Close Square" xmlns="http://www.w3.org/2000/svg" width="23.905" height="25" viewBox="0 0 23.905 25">
  <path id="Stroke_1" data-name="Stroke 1" d="M-.033,5.542a.7.7,0,0,1-.507-.22.775.775,0,0,1,0-1.061L4.042-.53a.7.7,0,0,1,1.014,0,.775.775,0,0,1,0,1.061L.474,5.322A.7.7,0,0,1-.033,5.542Z" transform="translate(9.692 10.091)" fill="#fd5675"/>
  <path id="Stroke_2" data-name="Stroke 2" d="M4.557,5.55a.7.7,0,0,1-.507-.22L-.54.53A.775.775,0,0,1-.54-.53a.7.7,0,0,1,1.014,0l4.59,4.8a.775.775,0,0,1,0,1.061A.7.7,0,0,1,4.557,5.55Z" transform="translate(9.69 10.09)" fill="#fd5675"/>
  <path id="Stroke_3" data-name="Stroke 3" d="M11.2-.75c4.557,0,7.417.865,9.271,2.8s2.681,4.93,2.681,9.7-.827,7.757-2.681,9.7-4.714,2.8-9.271,2.8-7.417-.865-9.271-2.8S-.75,16.516-.75,11.75s.827-7.757,2.681-9.7S6.645-.75,11.2-.75Zm0,23.125c7.786,0,10.16-2.482,10.16-10.625S18.988,1.125,11.2,1.125,1.043,3.607,1.043,11.75,3.417,22.375,11.2,22.375Z" transform="translate(0.75 0.75)" fill="#fd5675"/>
</svg>
