<svg id="device" xmlns="http://www.w3.org/2000/svg" width="19.124" height="24.313" viewBox="0 0 19.124 24.313">
  <path id="Stroke_7" data-name="Stroke 7" d="M8.812-.75c3.646,0,5.933.692,7.417,2.243s2.145,3.944,2.145,7.757-.662,6.205-2.145,7.757S12.458,19.25,8.812,19.25,2.878,18.558,1.4,17.007-.75,13.063-.75,9.25-.088,3.045,1.4,1.493,5.166-.75,8.812-.75Zm0,18.5c6.229,0,8.128-1.986,8.128-8.5S15.041.75,8.812.75.684,2.736.684,9.25,2.583,17.75,8.812,17.75Z" transform="translate(0.75 0.75)" fill="#013c68"/>
  <path id="Line_833" data-name="Line 833" d="M15.262.85H-.037A.832.832,0,0,1-.85,0,.832.832,0,0,1-.037-.85h15.3a.832.832,0,0,1,.813.85A.832.832,0,0,1,15.262.85Z" transform="translate(1.806 23.463)" fill="#013c68"/>
</svg>
