<svg xmlns="http://www.w3.org/2000/svg" width="30.26" height="17.872" viewBox="0 0 30.26 17.872">
  <g id="down" transform="translate(1990.458 -8183.922)">
    <g id="Arrow_-_Left_Circle" data-name="Arrow - Left Circle" transform="translate(-1991.096 8174.137)">
      <path id="Stroke_3" data-name="Stroke 3" d="M14.384,17.122c-1.709,0-4.36-.819-9.732-7.206C1.971,6.729-.188,3.591-.278,3.459A2.688,2.688,0,0,1,4.155.417C4.187.464,6.124,3.276,8.5,6.139c3.749,4.515,5.454,5.412,5.882,5.579.428-.168,2.132-1.065,5.878-5.579C22.645,3.267,24.585.446,24.6.418a2.688,2.688,0,0,1,4.434,3.041c-.091.132-2.247,3.269-4.927,6.457C18.744,16.3,16.093,17.122,14.384,17.122Z" transform="translate(1.388 10.535)" fill="#013c68"/>
    </g>
  </g>
</svg>
