<svg id="google" xmlns="http://www.w3.org/2000/svg" width="45.907" height="46.908" viewBox="0 0 45.907 46.908">
  <g id="Color-" transform="translate(0 0)">
    <g id="Google-2" data-name="Google" transform="translate(0 0)">
      <path id="Fill-1" d="M9.822,23.994a13.873,13.873,0,0,1,.7-4.354L2.622,13.6a23.613,23.613,0,0,0,0,20.773l7.9-6.048a13.877,13.877,0,0,1-.7-4.335" transform="translate(-0.214 -0.54)" fill="#fbbc05" fill-rule="evenodd"/>
      <path id="Fill-2" d="M23.7,10.128A13.59,13.59,0,0,1,32.35,13.22L39.183,6.4A23.473,23.473,0,0,0,2.623,13.6l7.9,6.036A13.841,13.841,0,0,1,23.7,10.128" transform="translate(-0.215 -0.533)" fill="#eb4335" fill-rule="evenodd"/>
      <path id="Fill-3" d="M23.7,37.862a13.841,13.841,0,0,1-13.174-9.505l-7.9,6.035A23.417,23.417,0,0,0,23.7,47.456a22.383,22.383,0,0,0,15.3-5.845l-7.5-5.8a14.528,14.528,0,0,1-7.8,2.051" transform="translate(-0.215 -0.548)" fill="#34a853" fill-rule="evenodd"/>
      <path id="Fill-4" d="M46.133,24a19.431,19.431,0,0,0-.534-4.264H23.714V28.8h12.6a10.563,10.563,0,0,1-4.8,7.011l7.5,5.8c4.312-4,7.117-9.964,7.117-17.609" transform="translate(-0.226 -0.544)" fill="#4285f4" fill-rule="evenodd"/>
    </g>
  </g>
</svg>
