<svg xmlns="http://www.w3.org/2000/svg" width="21.5" height="21.5" viewBox="0 0 21.5 21.5">
  <g id="Initiate" transform="translate(-1.25 -1.25)">
    <path id="Path_77151" data-name="Path 77151" d="M21.25,12A9.25,9.25,0,1,1,12,2.75a.75.75,0,0,0,0-1.5A10.75,10.75,0,1,0,22.75,12a.75.75,0,0,0-1.5,0Z" fill="#fd5675"/>
    <path id="Path_77152" data-name="Path 77152" d="M12.47,10.47A.75.75,0,0,0,13.53,11.53l7.72-7.72V7.344a.75.75,0,0,0,1.5,0V2A.75.75,0,0,0,22,1.25H16.656a.75.75,0,0,0,0,1.5h3.533Z" fill="#fd5675"/>
  </g>
</svg>
