<svg id="ip" xmlns="http://www.w3.org/2000/svg" width="18.798" height="22.216" viewBox="0 0 18.798 22.216">
  <g id="Location">
    <path id="Stroke_3" data-name="Stroke 3" d="M8.648,21.466c-1.9,0-4.267-1.518-6.183-3.962A14.579,14.579,0,0,1-.75,8.761,9.466,9.466,0,0,1,8.648-.75a9.467,9.467,0,0,1,9.4,9.511A14.578,14.578,0,0,1,14.832,17.5C12.917,19.947,10.547,21.466,8.648,21.466Zm0-20.507a7.755,7.755,0,0,0-7.69,7.8,12.844,12.844,0,0,0,2.852,7.688c1.55,1.978,3.494,3.308,4.838,3.308s3.288-1.329,4.839-3.308a12.843,12.843,0,0,0,2.852-7.688A7.756,7.756,0,0,0,8.648.959Z" transform="translate(0.75 0.75)" fill="#013c68"/>
  </g>
  <path id="Path_77089" data-name="Path 77089" d="M1.41-2.922H2.817V-10.5H1.41ZM7.981-10.5H4.863v7.578H6.271V-5.109h1.71c1.992,0,3.226-1.028,3.226-2.7S9.973-10.5,7.981-10.5ZM7.916-6.3H6.271v-3.01H7.916c1.234,0,1.873.552,1.873,1.5S9.151-6.3,7.916-6.3Z" transform="translate(4.422 17.63)" fill="#013c68"/>
</svg>
