<svg xmlns="http://www.w3.org/2000/svg" width="21.5" height="21.5" viewBox="0 0 21.5 21.5">
  <path id="key" d="M9.757,1.983a.75.75,0,0,1-.733.767C6.2,2.814,4.873,3.1,4,3.976A4.245,4.245,0,0,0,2.927,6.6,45.171,45.171,0,0,0,2.75,11.99a45.171,45.171,0,0,0,.177,5.392A4.245,4.245,0,0,0,4,20a4.246,4.246,0,0,0,2.622,1.07,45.186,45.186,0,0,0,5.392.177,45.186,45.186,0,0,0,5.392-.177A4.245,4.245,0,0,0,20.024,20c.877-.877,1.162-2.206,1.226-5.028a.75.75,0,0,1,1.5.034c-.063,2.766-.312,4.7-1.665,6.054a5.709,5.709,0,0,1-3.483,1.5,45.711,45.711,0,0,1-5.535.19h-.115a45.71,45.71,0,0,1-5.534-.19,5.709,5.709,0,0,1-3.483-1.5,5.709,5.709,0,0,1-1.5-3.483,45.7,45.7,0,0,1-.19-5.535v-.115A45.7,45.7,0,0,1,1.44,6.4a5.709,5.709,0,0,1,1.5-3.483C4.288,1.563,6.223,1.313,8.99,1.25A.75.75,0,0,1,9.757,1.983Zm7.5.767a3.98,3.98,0,0,0-3.989,3.97A3.579,3.579,0,0,0,13.5,7.954a3.361,3.361,0,0,0,.155.354c.02.039.036.068.046.085l.009.016a.746.746,0,0,1-.105.925L7.87,15.045a.459.459,0,0,0-.07.1.4.4,0,0,0-.047.128.183.183,0,0,0,.005.089.414.414,0,0,0,.112.161l.634.632a.553.553,0,0,0,.086.052.48.48,0,0,0,.136.045.186.186,0,0,0,.082,0,.239.239,0,0,0,.1-.066l.772-.768a.75.75,0,0,1,1.058,0,.686.686,0,0,0,.279.183.423.423,0,0,0,.208.01.662.662,0,0,0,.364-.216.38.38,0,0,0,.044-.374.87.87,0,0,0-.089-.184c-.014-.023-.026-.039-.033-.048l0,0a.75.75,0,0,1,.046-1.013l.22-.22a.75.75,0,0,1,1.058,0c.384.382.639.378.761.354a.756.756,0,0,0,.42-.267.506.506,0,0,0,.082-.438.83.83,0,0,0-.067-.181c-.011-.022-.02-.037-.024-.044v0l-.028-.04-.026-.053a.438.438,0,0,0-.073-.1l-.009-.009a1.745,1.745,0,0,1-.247-.319.978.978,0,0,1-.056-.848,1.752,1.752,0,0,1,.416-.583l.661-.659a.75.75,0,0,1,1.008-.046,1.847,1.847,0,0,0,.739.282,4.674,4.674,0,0,0,.876.094,3.97,3.97,0,1,0,0-7.94ZM13.149,15.376a1.861,1.861,0,0,1-.349.892l-.005.007-.005.007a2.153,2.153,0,0,1-1.285.793,1.926,1.926,0,0,1-1.214-.16l-.327.326a1.674,1.674,0,0,1-1.457.49,2.031,2.031,0,0,1-.992-.451l-.042-.039-.661-.659a1.753,1.753,0,0,1-.539-1.555,1.961,1.961,0,0,1,.539-1.044l5.351-5.329c-.023-.055-.046-.114-.069-.176a5.076,5.076,0,0,1-.323-1.757,5.489,5.489,0,1,1,5.489,5.47,6.159,6.159,0,0,1-1.18-.125,4.223,4.223,0,0,1-.79-.239l-.145.145a1.739,1.739,0,0,1,.116.185l.013.021c.024.038.054.089.085.152a2.33,2.33,0,0,1,.191.516,2,2,0,0,1-.327,1.668l-.005.007-.005.007a2.253,2.253,0,0,1-1.344.845A2,2,0,0,1,13.149,15.376Zm4.112-9.553a.9.9,0,1,0,.9.9A.9.9,0,0,0,17.261,5.824Zm-2.4.9a2.4,2.4,0,1,1,2.4,2.4A2.4,2.4,0,0,1,14.857,6.72Z" transform="translate(-1.25 -1.25)" fill="#fd5675" fill-rule="evenodd"/>
</svg>
