<svg id="lastpass" xmlns="http://www.w3.org/2000/svg" width="68.966" height="13.926" viewBox="0 0 68.966 13.926">
  <path id="Path_77100" data-name="Path 77100" d="M47.1,13.815l-.212-1.242a.291.291,0,0,0-.077-.185c-.039-.032-.122-.035-.25-.01l-.337.049c-.135.02-.269.036-.4.049s-.266.023-.394.029-.231.01-.308.01a1.4,1.4,0,0,1-.885-.233,1.05,1.05,0,0,1-.289-.854V6.208h1.935c.141,0,.228-.026.259-.078a.5.5,0,0,0,.048-.253V4.821a.461.461,0,0,0-.048-.223c-.032-.058-.119-.087-.259-.087H43.945V2.045a.33.33,0,0,0-.1-.281.293.293,0,0,0-.25-.029l-1.378.387a.964.964,0,0,0-.3.155.364.364,0,0,0-.175.354V4.51H40.8c-.152,0-.208.036-.247.087-.023.031-.49,1.216-.515,1.31a.2.2,0,0,0,.057.209.306.306,0,0,0,.251.092h1.417l-.05,5.51a2.893,2.893,0,0,0,.654,2.077,3.019,3.019,0,0,0,2.233.679q.366,0,1.02-.039a5.2,5.2,0,0,0,1.309-.253c.115-.052.176-.107.183-.165a.764.764,0,0,0-.01-.2Z" transform="translate(-13.484 -0.579)" fill="#d71340"/>
  <path id="Path_77101" data-name="Path 77101" d="M18.118,4.956a13.987,13.987,0,0,0-1.81.126,7.765,7.765,0,0,0-1.771.437q-.25.1-.173.408l.269,1.107q.038.175.135.214a.523.523,0,0,0,.308-.02,8.153,8.153,0,0,1,1.251-.272,9.57,9.57,0,0,1,1.425-.116,3.288,3.288,0,0,1,1,.126,1.44,1.44,0,0,1,.606.359,1.2,1.2,0,0,1,.3.544,2.838,2.838,0,0,1,.077.679v.33H17.579a5.739,5.739,0,0,0-1.954.291,3.7,3.7,0,0,0-1.3.767,2.771,2.771,0,0,0-.722,1.107,4.077,4.077,0,0,0-.029,2.562,2.315,2.315,0,0,0,.683,1.029,3.587,3.587,0,0,0,1.328.7,7.166,7.166,0,0,0,2.108.262q.462,0,.972-.029t1.03-.107a8.481,8.481,0,0,0,1.011-.214,6.109,6.109,0,0,0,.914-.33.646.646,0,0,0,.366-.641V8.452a3.434,3.434,0,0,0-.933-2.6,4.128,4.128,0,0,0-2.935-.893Zm1.6,8.5a3.206,3.206,0,0,1-.548.155c-.2.039-.388.071-.568.1a4.936,4.936,0,0,1-.51.049c-.16.006-.286.01-.375.01a2.9,2.9,0,0,1-1.482-.33,1.239,1.239,0,0,1-.558-1.165,1.622,1.622,0,0,1,.221-.912,1.487,1.487,0,0,1,.558-.5,1.977,1.977,0,0,1,.712-.214,6.965,6.965,0,0,1,.7-.039h1.848v2.854Z" transform="translate(-4.508 -1.669)" fill="#d71340"/>
  <path id="Path_77102" data-name="Path 77102" d="M34.582,10.477a4.628,4.628,0,0,0-1.05-.6q-.592-.247-1.211-.465-.542-.181-.921-.346a3.889,3.889,0,0,1-.612-.323,1.088,1.088,0,0,1-.343-.347.93.93,0,0,1-.114-.456.875.875,0,0,1,.316-.664,1.524,1.524,0,0,1,1.034-.314,7.352,7.352,0,0,1,1.224.074,8,8,0,0,1,1.324.339.458.458,0,0,0,.242.034c.057-.013.1-.072.141-.174l.424-1.095a.544.544,0,0,0,0-.267.311.311,0,0,0-.186-.188,7.707,7.707,0,0,0-1.567-.421,9.3,9.3,0,0,0-1.619-.115,5.077,5.077,0,0,0-1.559.247,3.352,3.352,0,0,0-1.123.621,2.489,2.489,0,0,0-.673.918A2.812,2.812,0,0,0,28.1,8.092,2.388,2.388,0,0,0,28.319,9.1a2.472,2.472,0,0,0,.6.781,4.047,4.047,0,0,0,.983.622,14.221,14.221,0,0,0,1.386.548,8.88,8.88,0,0,1,1.571.678A1.007,1.007,0,0,1,33,13.415a1.955,1.955,0,0,1-1.207.336,7.3,7.3,0,0,1-1.5-.155,7.176,7.176,0,0,1-1.548-.478.394.394,0,0,0-.309-.042.518.518,0,0,0-.189.222L27.8,14.374a.3.3,0,0,0,.142.456,5.048,5.048,0,0,0,.894.375,7.2,7.2,0,0,0,1.008.24q.523.086,1.045.125t.985.031a5.963,5.963,0,0,0,1.5-.207,3.551,3.551,0,0,0,1.2-.574,2.6,2.6,0,0,0,.785-.958,2.921,2.921,0,0,0,.266-1.34,2.415,2.415,0,0,0-.3-1.2,2.954,2.954,0,0,0-.746-.846Z" transform="translate(-9.349 -1.734)" fill="#d71340"/>
  <path id="Path_77103" data-name="Path 77103" d="M69.788,4.956a8.331,8.331,0,0,0-2.241.394q-.25.1-.173.407l.269,1.106q.038.175.135.213a.526.526,0,0,0,.308-.019,5.062,5.062,0,0,1,1.337-.22,3.288,3.288,0,0,1,1,.126,1.434,1.434,0,0,1,.606.359,1.186,1.186,0,0,1,.3.543,2.8,2.8,0,0,1,.077.679v.33H69.249a5.741,5.741,0,0,0-1.954.291,3.692,3.692,0,0,0-1.3.766,2.769,2.769,0,0,0-.722,1.106,3.92,3.92,0,0,0-.221,1.309,3.97,3.97,0,0,0,.192,1.251,2.321,2.321,0,0,0,.683,1.028,3.6,3.6,0,0,0,1.328.7,7.186,7.186,0,0,0,2.108.262q.462,0,.972-.029t1.03-.107a8.491,8.491,0,0,0,1.01-.213,6.107,6.107,0,0,0,.914-.33.645.645,0,0,0,.366-.64V8.448a3.427,3.427,0,0,0-.933-2.6,4.129,4.129,0,0,0-2.935-.892Zm1.6,8.5a3.212,3.212,0,0,1-.548.155q-.3.058-.568.1a4.92,4.92,0,0,1-.51.049q-.241.01-.375.01a2.9,2.9,0,0,1-1.482-.33,1.238,1.238,0,0,1-.558-1.164,1.62,1.62,0,0,1,.221-.912,1.492,1.492,0,0,1,.558-.5,1.971,1.971,0,0,1,.712-.213,6.8,6.8,0,0,1,.7-.039h1.848v2.851Z" transform="translate(-21.914 -1.669)" fill="#d71340"/>
  <path id="Path_77104" data-name="Path 77104" d="M99.7,11.323a2.939,2.939,0,0,0-.747-.846,4.636,4.636,0,0,0-1.05-.6q-.593-.247-1.212-.465-.543-.181-.921-.346a3.916,3.916,0,0,1-.612-.323,1.088,1.088,0,0,1-.343-.347.931.931,0,0,1-.114-.456.875.875,0,0,1,.316-.664,1.523,1.523,0,0,1,1.034-.314,7.352,7.352,0,0,1,1.224.074,7.986,7.986,0,0,1,1.324.339.46.46,0,0,0,.242.034c.057-.013.1-.072.141-.174l.424-1.095a.546.546,0,0,0,0-.267.312.312,0,0,0-.186-.188,7.715,7.715,0,0,0-1.567-.421,9.3,9.3,0,0,0-1.619-.115,5.077,5.077,0,0,0-1.559.247,3.352,3.352,0,0,0-1.123.621,2.483,2.483,0,0,0-.673.918,2.812,2.812,0,0,0-.213,1.158A2.389,2.389,0,0,0,92.691,9.1a2.473,2.473,0,0,0,.6.781,4.046,4.046,0,0,0,.983.622,14.073,14.073,0,0,0,1.386.548,8.916,8.916,0,0,1,1.571.678,1.007,1.007,0,0,1,.145,1.686,1.955,1.955,0,0,1-1.207.336,7.3,7.3,0,0,1-1.5-.155,7.176,7.176,0,0,1-1.548-.478.394.394,0,0,0-.309-.042.522.522,0,0,0-.189.222l-.443,1.076a.3.3,0,0,0,.142.456,5.045,5.045,0,0,0,.894.375,7.162,7.162,0,0,0,1.008.24q.522.086,1.044.125t.985.031a5.96,5.96,0,0,0,1.5-.207,3.548,3.548,0,0,0,1.2-.574,2.607,2.607,0,0,0,.784-.958,2.916,2.916,0,0,0,.267-1.34,2.415,2.415,0,0,0-.3-1.2Z" transform="translate(-31.034 -1.734)" fill="#d71340"/>
  <path id="Path_77105" data-name="Path 77105" d="M86.248,10.477a4.628,4.628,0,0,0-1.05-.6q-.592-.247-1.211-.465-.542-.181-.921-.346a3.889,3.889,0,0,1-.612-.323,1.087,1.087,0,0,1-.343-.347A.93.93,0,0,1,82,7.938a.875.875,0,0,1,.316-.664,1.524,1.524,0,0,1,1.034-.314,7.351,7.351,0,0,1,1.224.074,8,8,0,0,1,1.324.339.458.458,0,0,0,.242.034c.057-.013.1-.072.141-.174L86.7,6.139a.544.544,0,0,0,0-.267.311.311,0,0,0-.186-.188,7.707,7.707,0,0,0-1.567-.421,9.3,9.3,0,0,0-1.619-.115,5.076,5.076,0,0,0-1.559.247,3.352,3.352,0,0,0-1.123.621,2.489,2.489,0,0,0-.673.918,2.8,2.8,0,0,0-.213,1.158,2.38,2.38,0,0,0,.22,1.007,2.47,2.47,0,0,0,.6.781,4.047,4.047,0,0,0,.983.622,14.124,14.124,0,0,0,1.386.548,8.919,8.919,0,0,1,1.571.678,1.007,1.007,0,0,1,.145,1.686,1.955,1.955,0,0,1-1.207.336,7.3,7.3,0,0,1-1.5-.155,7.176,7.176,0,0,1-1.548-.478.394.394,0,0,0-.309-.042.522.522,0,0,0-.189.222l-.443,1.076a.3.3,0,0,0,.142.456,5.048,5.048,0,0,0,.894.375,7.2,7.2,0,0,0,1.008.24q.523.086,1.045.125t.985.031a5.959,5.959,0,0,0,1.5-.207,3.556,3.556,0,0,0,1.2-.574,2.6,2.6,0,0,0,.785-.958,2.929,2.929,0,0,0,.266-1.34,2.416,2.416,0,0,0-.3-1.2,2.937,2.937,0,0,0-.746-.846Z" transform="translate(-26.754 -1.734)" fill="#d71340"/>
  <path id="Path_77106" data-name="Path 77106" d="M61.89,2.827A4.04,4.04,0,0,0,59.513.533,5.241,5.241,0,0,0,57.655.216H53.537a.761.761,0,0,0-.761.761v.361c0,.016,0,.031,0,.045V11.89h0v1.741a.345.345,0,0,0,.345.345h1.643a.345.345,0,0,0,.345-.345v-4.5h2.344a5.19,5.19,0,0,0,2.458-.5,4.205,4.205,0,0,0,1.452-1.219,4.051,4.051,0,0,0,.691-1.485A6.192,6.192,0,0,0,62.225,4.6a4.582,4.582,0,0,0-.335-1.772ZM59.314,6.381a2.44,2.44,0,0,1-1.869.635H54.979V2.469H57.4a2.962,2.962,0,0,1,1.239.225,2.081,2.081,0,0,1,.762.563A2.026,2.026,0,0,1,59.791,4a2.912,2.912,0,0,1,.112.758,2.286,2.286,0,0,1-.589,1.618Z" transform="translate(-17.778 -0.073)" fill="#d71340"/>
  <path id="Path_77107" data-name="Path 77107" d="M8.476,13.381q-.06-.347-.121-.693-.045-.258-.091-.516c-.025-.14-.028-.338-.134-.441a.31.31,0,0,0-.051-.041.694.694,0,0,0-.4-.074H4.047a1.693,1.693,0,0,1-1.111-.335,1.422,1.422,0,0,1-.4-1.151V.375A.381.381,0,0,0,2.524.3.376.376,0,0,0,2.271.018.369.369,0,0,0,2.157,0H.375A.375.375,0,0,0,.014.275.385.385,0,0,0,0,.375v9.757a5.785,5.785,0,0,0,.166,1.4,3.086,3.086,0,0,0,.581,1.193,2.9,2.9,0,0,0,1.121.837,4.411,4.411,0,0,0,1.785.314H7.378c.321,0,1.171.024,1.1-.5Z" fill="#d71340"/>
</svg>
