<svg xmlns="http://www.w3.org/2000/svg" width="42.376" height="50.68" viewBox="0 0 42.376 50.68">
  <g id="Lock" transform="translate(0 0)">
    <path id="Stroke_1" data-name="Stroke 1" d="M24.117,19.79A1.889,1.889,0,0,1,22.228,17.9V12.5a9.6,9.6,0,0,0-19.2-.045V17.9a1.889,1.889,0,1,1-3.779,0V12.436q0-.016,0-.032A13.379,13.379,0,0,1,21.97,3.052a13.289,13.289,0,0,1,4.036,9.412c0,.008,0,.015,0,.023V17.9A1.889,1.889,0,0,1,24.117,19.79Z" transform="translate(8.559 0.75)" fill="#013c68"/>
    <path id="Stroke_3" data-name="Stroke 3" d="M1.639,8.624A1.889,1.889,0,0,1-.25,6.735v-5.6a1.889,1.889,0,1,1,3.779,0v5.6A1.889,1.889,0,0,1,1.639,8.624Z" transform="translate(19.548 29.485)" fill="#013c68"/>
    <path id="Stroke_5" data-name="Stroke 5" d="M20.437-.75c7.974,0,12.993,1.2,16.274,3.883,3.4,2.782,4.915,7.04,4.915,13.8S40.11,27.961,36.711,30.744c-3.281,2.686-8.3,3.884-16.274,3.884S7.444,33.43,4.164,30.744C.765,27.961-.75,23.7-.75,16.937S.765,5.916,4.164,3.134C7.444.448,12.463-.75,20.437-.75Zm0,31.6c6.945,0,11.356-.962,13.88-3.029,2.441-2,3.53-5.355,3.53-10.882s-1.089-8.882-3.53-10.88c-2.524-2.066-6.935-3.029-13.88-3.029S9.081,3.991,6.558,6.057c-2.44,2-3.529,5.353-3.529,10.88S4.117,25.821,6.558,27.82C9.081,29.886,13.492,30.849,20.437,30.849Z" transform="translate(0.75 16.052)" fill="#013c68"/>
  </g>
</svg>
