<svg xmlns="http://www.w3.org/2000/svg" width="26.654" height="25.344" viewBox="0 0 26.654 25.344">
  <g id="Logout" transform="translate(0.491)">
    <path id="Stroke_1" data-name="Stroke 1" d="M15.459,1.651H.2a.95.95,0,1,1,0-1.9H15.459a.95.95,0,1,1,0,1.9Z" transform="translate(9.752 12.125)" fill="#013c68"/>
    <path id="Stroke_3" data-name="Stroke 3" d="M.2,8.541A.95.95,0,0,1-.47,6.917L2.564,3.9-.47.874A.95.95,0,1,1,.871-.473l3.71,3.7a.95.95,0,0,1,0,1.347l-3.71,3.7A.948.948,0,0,1,.2,8.541Z" transform="translate(21.301 8.929)" fill="#013c68"/>
    <path id="Stroke_4" data-name="Stroke 4" d="M-4.9,24.594c-4.852,0-7.368-.874-8.683-3.016-1.265-2.06-1.265-5.082-1.265-9.656s0-7.6,1.265-9.656C-12.27.124-9.754-.75-4.9-.75-1.224-.75.982-.278,2.475.828,4.305,2.184,4.735,4.354,4.914,6.3a.95.95,0,1,1-1.893.174c-.2-2.19-.688-3.383-1.679-4.117-1.124-.833-3.05-1.2-6.245-1.2-4.1,0-6.143.611-7.064,2.11-.984,1.6-.984,4.41-.984,8.661s0,7.059.984,8.661c.921,1.5,2.967,2.11,7.064,2.11,3.2,0,5.122-.371,6.245-1.2.99-.734,1.477-1.927,1.679-4.117a.95.95,0,0,1,1.893.174c-.179,1.943-.609,4.113-2.44,5.47C.982,24.122-1.224,24.594-4.9,24.594Z" transform="translate(14.36 0.75)" fill="#013c68"/>
  </g>
</svg>
