<svg xmlns="http://www.w3.org/2000/svg" width="25.058" height="24.864" viewBox="0 0 25.058 24.864">
  <g id="magicLink" transform="translate(-1066.471 -782.436)">
    <path id="login-svgrepo-com" d="M11.936,0A12.331,12.331,0,0,1,24.458,12.132,12.331,12.331,0,0,1,11.936,24.264,12.647,12.647,0,0,1,2.067,19.6a.777.777,0,0,1,.141-1.114.837.837,0,0,1,1.15.136,10.99,10.99,0,0,0,8.579,4.056A10.718,10.718,0,0,0,22.819,12.132,10.718,10.718,0,0,0,11.936,1.587,10.993,10.993,0,0,0,3.445,5.536a.837.837,0,0,1-1.152.122.777.777,0,0,1-.126-1.116A12.652,12.652,0,0,1,11.936,0ZM12.6,8.325l3.31,3.284a.8.8,0,0,1,.014,1.136l-3.233,3.207a.814.814,0,0,1-1.145-.013.8.8,0,0,1-.014-1.136l1.893-1.878H.819a.794.794,0,1,1,0-1.587H13.376l-1.905-1.89a.8.8,0,0,1-.014-1.136A.814.814,0,0,1,12.6,8.325Z" transform="translate(1066.771 782.736)" fill="#013c68"/>
    <path id="login-svgrepo-com_-_Outline" data-name="login-svgrepo-com - Outline" d="M11.936-.3A12.943,12.943,0,0,1,21,3.338a12.167,12.167,0,0,1,0,17.588,12.943,12.943,0,0,1-9.063,3.638A13.221,13.221,0,0,1,6.293,23.3a12.853,12.853,0,0,1-4.46-3.511A1.069,1.069,0,0,1,1.6,18.98a1.08,1.08,0,0,1,.426-.735,1.137,1.137,0,0,1,1.564.187,10.655,10.655,0,0,0,8.346,3.944A10.43,10.43,0,0,0,22.519,12.132,10.43,10.43,0,0,0,11.936,1.887a10.675,10.675,0,0,0-8.261,3.84,1.125,1.125,0,0,1-.87.405,1.139,1.139,0,0,1-.7-.238,1.077,1.077,0,0,1-.173-1.544A12.924,12.924,0,0,1,11.936-.3Zm0,24.264a12.346,12.346,0,0,0,8.645-3.469,11.567,11.567,0,0,0,0-16.726A12.346,12.346,0,0,0,11.936.3,12.326,12.326,0,0,0,2.4,4.734a.474.474,0,0,0-.109.356.484.484,0,0,0,.188.331.537.537,0,0,0,.736-.077A11.417,11.417,0,0,1,19.84,4.46a10.614,10.614,0,0,1,0,15.343,11.289,11.289,0,0,1-7.9,3.173,11.252,11.252,0,0,1-8.812-4.167.537.537,0,0,0-.735-.086.485.485,0,0,0-.192.329.474.474,0,0,0,.1.357A12.3,12.3,0,0,0,11.936,23.964Zm.081-16.18a1.124,1.124,0,0,1,.8.329l3.31,3.284a1.111,1.111,0,0,1,.333.793,1.075,1.075,0,0,1-.319.769L12.9,16.165a1.087,1.087,0,0,1-.771.316,1.124,1.124,0,0,1-.8-.329A1.111,1.111,0,0,1,11,15.358a1.075,1.075,0,0,1,.319-.769L12.7,13.225H.819a1.094,1.094,0,1,1,0-2.187H12.647L11.259,9.661a1.111,1.111,0,0,1-.333-.793,1.075,1.075,0,0,1,.319-.769A1.087,1.087,0,0,1,12.017,7.783Zm.116,8.1a.491.491,0,0,0,.349-.142l3.233-3.207a.479.479,0,0,0,.142-.343.515.515,0,0,0-.155-.367l-3.31-3.284a.528.528,0,0,0-.374-.155.491.491,0,0,0-.349.142.479.479,0,0,0-.142.343.515.515,0,0,0,.155.367l2.422,2.4H.819a.494.494,0,1,0,0,.987H14.156l-2.41,2.391a.479.479,0,0,0-.142.343.515.515,0,0,0,.155.367A.528.528,0,0,0,12.133,15.88Z" transform="translate(1066.771 782.736)" fill="#023c68"/>
  </g>
</svg>
