<svg xmlns="http://www.w3.org/2000/svg" width="27.228" height="27.227" viewBox="0 0 27.228 27.227">
  <g id="microsoft-authenticator" transform="translate(0.7 0.1)">
    <path id="Path_77108" data-name="Path 77108" d="M24.857,27.127H.97A1.67,1.67,0,0,1-.7,25.457V1.57A1.67,1.67,0,0,1,.97-.1H24.857a1.67,1.67,0,0,1,1.67,1.67V25.457A1.666,1.666,0,0,1,24.857,27.127Z" transform="translate(0)" fill="#0078d7"/>
    <path id="Path_77109" data-name="Path 77109" d="M122.825,68.622c0,.08,0,.154-.005.234-.617-.133-1.261-.239-1.925-.324a3.182,3.182,0,0,0-6.361,0c-.665.085-1.308.191-1.925.324-.005-.08-.005-.16-.005-.239a5.111,5.111,0,1,1,10.223.005Zm-5.09,15.34c9.032-3.8,7.654-13.467,7.654-13.467a24.027,24.027,0,0,0-15.329,0s-1.378,9.67,7.654,13.467Z" transform="translate(-104.798 -60.217)" fill="#fff"/>
    <path id="Path_77110" data-name="Path 77110" d="M213.405,225.669a2.17,2.17,0,0,1-.021.324h-4.963a2.17,2.17,0,0,1-.021-.324,2.5,2.5,0,0,1,1.771-2.393,1.909,1.909,0,1,1,1.457,0A2.5,2.5,0,0,1,213.405,225.669Z" transform="translate(-197.978 -208.014)" fill="#0078d7"/>
  </g>
</svg>
