<svg xmlns="http://www.w3.org/2000/svg" width="1000.02" height="919.21" viewBox="0 0 1000.02 919.21">
  <g id="no_data" data-name="no data" transform="translate(0 -40.39)">
    <g id="Group_54734" data-name="Group 54734" opacity="0.25">
      <path id="Path_77122" data-name="Path 77122" d="M967.61,435c-20.02-16.64-47.67-26.93-78.19-26.93H814.28c-30.55,0-58.19-10.28-78.2-26.93-20.01-16.63-32.4-39.6-32.4-64.98,0-50.78,49.52-91.93,110.6-91.93h75.14c61.07,0,110.58-41.15,110.58-91.93,0-25.38-12.38-48.36-32.39-64.98-20.02-16.64-47.67-26.93-78.19-26.93H110.58C49.51,40.41,0,81.56,0,132.31c0,25.38,12.38,48.37,32.39,65s47.67,26.93,78.19,26.93H118c30.55,0,58.19,10.29,78.21,26.93s32.39,39.61,32.39,65c0,50.76-49.51,91.91-110.6,91.91h-7.42C49.51,408.08,0,449.24,0,500.01c0,25.38,12.38,48.37,32.39,65s47.67,26.93,78.19,26.93h54.93l-6-48.48a23.374,23.374,0,0,1,7.27-19.96l142.4-225.29a30.182,30.182,0,0,1,16.86-12.82,29.7,29.7,0,0,1,8.79-1.31h44.94V144.17a23.7,23.7,0,0,1,23.71-23.7H565.97a23.73,23.73,0,0,1,18.96,9.47l59.77,79.61a23.468,23.468,0,0,1,4.75,14.24v79.67L825.92,592.71h0l.18.28.74,1.21v.03a18.9,18.9,0,0,1,.94,1.85,131.589,131.589,0,0,1,32.94-4.14H889.4c61.07,0,110.58-41.16,110.58-91.93,0-25.38-12.38-48.37-32.39-65ZM305.19,215.1l20.39,20.39a5.191,5.191,0,0,1,0,7.33l-7.41,7.43a5.227,5.227,0,0,1-7.36,0l-20.39-20.4a5.172,5.172,0,0,0-7.33,0L262.7,250.23a5.172,5.172,0,0,1-7.33,0l-7.42-7.41a5.191,5.191,0,0,1,0-7.33l20.39-20.39a5.2,5.2,0,0,0,0-7.34l-20.41-20.39a5.215,5.215,0,0,1,0-7.35l7.44-7.41a5.172,5.172,0,0,1,7.33,0L283.09,193a5.215,5.215,0,0,0,7.35,0l20.39-20.39a5.185,5.185,0,0,1,7.34,0l7.41,7.41a5.2,5.2,0,0,1,0,7.34l-20.39,20.38a5.227,5.227,0,0,0,0,7.36Zm386.89-76.17-9.25,9.26a2.354,2.354,0,0,1-3.33,0l-3.36-3.36a2.354,2.354,0,0,1,0-3.33l9.25-9.26a2.354,2.354,0,0,0,0-3.33l-9.26-9.26a2.354,2.354,0,0,1,0-3.33l3.38-3.36a2.354,2.354,0,0,1,3.33,0l9.25,9.25a2.366,2.366,0,0,0,3.34,0l9.26-9.25a2.354,2.354,0,0,1,3.33,0l3.36,3.36a2.354,2.354,0,0,1,0,3.33l-9.26,9.25a2.366,2.366,0,0,0,0,3.34l9.26,9.26a2.354,2.354,0,0,1,0,3.33l-3.36,3.38a2.384,2.384,0,0,1-3.34,0l-9.26-9.27a2.354,2.354,0,0,0-3.33,0ZM967.62,802.69c-20.02-16.63-47.67-26.93-78.19-26.93H860.75a127.279,127.279,0,0,1-56.81-13.05L787.43,861.5l-4.82,28.85a23.378,23.378,0,0,1-23.04,19.51H225.51a23.323,23.323,0,0,1-23.18-20.5l-3.45-27.86-10.6-85.74H110.6C49.53,775.76.02,816.91.02,867.69c0,25.38,12.38,48.36,32.39,64.98,20.02,16.64,47.67,26.93,78.19,26.93H889.44c61.07,0,110.58-41.15,110.58-91.91,0-25.38-12.38-48.37-32.39-65Zm-115,14.65,9.26,9.26a2.354,2.354,0,0,1,0,3.33l-3.36,3.38a2.366,2.366,0,0,1-3.34,0l-9.25-9.27a2.354,2.354,0,0,0-3.33,0l-9.26,9.26a2.354,2.354,0,0,1-3.33,0l-3.36-3.36a2.354,2.354,0,0,1,0-3.33l9.26-9.26a2.372,2.372,0,0,0,0-3.33l-9.27-9.25a2.366,2.366,0,0,1,0-3.34l3.38-3.36a2.354,2.354,0,0,1,3.33,0l9.26,9.25a2.354,2.354,0,0,0,3.33,0l9.26-9.25a2.354,2.354,0,0,1,3.33,0l3.36,3.36a2.354,2.354,0,0,1,0,3.33l-9.26,9.25a2.384,2.384,0,0,0,0,3.34Z" fill="#ccd2d6"/>
      <path id="Path_77123" data-name="Path 77123" d="M909.65,688.32A60.075,60.075,0,0,1,808.97,732.6l16.61-99.38h0a60.086,60.086,0,0,1,84.06,55.09Z" fill="#ccd2d6"/>
      <circle id="Ellipse_1828" data-name="Ellipse 1828" cx="60.08" cy="60.08" r="60.08" transform="translate(76.87 258.83)" fill="#ccd2d6"/>
    </g>
    <g id="Group_54753" data-name="Group 54753">
      <g id="Group_54735" data-name="Group 54735" opacity="0.5">
        <path id="Path_77124" data-name="Path 77124" d="M826.86,594.21v-.04l-.76-1.21-.18-.26a23.257,23.257,0,0,0-19.42-10.39H358.93a23.363,23.363,0,0,1-21.59-14.45L322.4,531.67a23.367,23.367,0,0,0-21.6-14.45H182.72a23.374,23.374,0,0,0-23.2,26.22l39.34,318.05H787.41l42.13-251.96a23.109,23.109,0,0,0-2.69-15.32ZM581.9,681.3a26.352,26.352,0,0,1-18.75,7.78H426.07a26.525,26.525,0,0,1,0-53.05H563.15A26.509,26.509,0,0,1,581.9,681.3Z" fill="#ccd2d6" opacity="0.157"/>
      </g>
      <g id="Group_54736" data-name="Group 54736" opacity="0.75">
        <path id="Path_77125" data-name="Path 77125" d="M589.67,662.56a26.563,26.563,0,0,1-26.53,26.53H426.06a26.525,26.525,0,0,1,0-53.05H563.14A26.524,26.524,0,0,1,589.67,662.56Z" fill="#ccd2d6"/>
      </g>
      <path id="Path_77126" data-name="Path 77126" d="M563.14,692.09H426.06a29.525,29.525,0,0,1,0-59.05H563.14a29.515,29.515,0,0,1,20.87,50.4,29.217,29.217,0,0,1-20.87,8.65ZM426.06,639.04a23.52,23.52,0,0,0,0,47.04H563.14a23.575,23.575,0,0,0,23.53-23.53,23.554,23.554,0,0,0-23.53-23.52H426.06Z" fill="#ccd2d6"/>
      <g id="Group_54737" data-name="Group 54737" opacity="0.75">
        <path id="Path_77127" data-name="Path 77127" d="M787.42,861.5l-4.82,28.86a23.353,23.353,0,0,1-23.04,19.5H225.5a23.332,23.332,0,0,1-23.18-20.5l-3.45-27.86Z" fill="#ccd2d6"/>
      </g>
      <path id="Path_77128" data-name="Path 77128" d="M759.56,912.86H225.5a26.382,26.382,0,0,1-26.16-23.13l-3.87-31.23H790.96l-5.4,32.35a26.283,26.283,0,0,1-26,22.01ZM202.26,864.5l3.04,24.49a20.378,20.378,0,0,0,20.21,17.87H759.57a20.29,20.29,0,0,0,20.08-17l4.24-25.36H202.26Z" fill="#ccd2d6"/>
      <g id="Group_54738" data-name="Group 54738">
        <path id="Path_77129" data-name="Path 77129" d="M475.24,832.36H241.09a3,3,0,0,1,0-6H475.24a3,3,0,0,1,0,6Z" fill="#ccd2d6"/>
        <path id="Path_77130" data-name="Path 77130" d="M649.45,832.36H514.61a3,3,0,0,1,0-6H649.45a3,3,0,0,1,0,6Z" fill="#ccd2d6"/>
        <path id="Path_77131" data-name="Path 77131" d="M293.43,585.31H210.79a3,3,0,0,1,0-6h82.64a3,3,0,1,1,0,6Z" fill="#ccd2d6"/>
        <path id="Path_77132" data-name="Path 77132" d="M758.98,800.21H615.74a3,3,0,0,1,0-6H758.98a3,3,0,0,1,0,6Z" fill="#ccd2d6"/>
      </g>
      <g id="Group_54742" data-name="Group 54742">
        <g id="Group_54739" data-name="Group 54739" opacity="0.75">
          <path id="Path_77133" data-name="Path 77133" d="M648.31,447.08V582.31H358.93a23.339,23.339,0,0,1-21.58-14.45l-11.29-27.34V285.36a30.045,30.045,0,0,1,8.8-1.31h44.93V439.79a23.693,23.693,0,0,0,23.7,23.7H625.76a23.7,23.7,0,0,0,22.55-16.42Z" fill="#ccd2d6"/>
        </g>
        <path id="Path_77134" data-name="Path 77134" d="M651.31,585.31H358.93a26.268,26.268,0,0,1-24.36-16.3l-11.52-27.89V283.15l2.12-.65a32.745,32.745,0,0,1,9.68-1.44h47.93V439.8a20.729,20.729,0,0,0,20.7,20.7H625.75a20.644,20.644,0,0,0,19.7-14.34l5.85-18.13V585.32ZM329.05,539.92l11.06,26.79a20.278,20.278,0,0,0,18.81,12.59H645.3V457.99a26.62,26.62,0,0,1-19.55,8.5H403.48a26.733,26.733,0,0,1-26.7-26.7V287.05H334.85a27.166,27.166,0,0,0-5.79.62V539.92Z" fill="#ccd2d6"/>
        <g id="Group_54740" data-name="Group 54740" opacity="0.75">
          <path id="Path_77135" data-name="Path 77135" d="M326.05,285.36V540.52l-3.66-8.85a23.357,23.357,0,0,0-21.6-14.45H182.7a23.221,23.221,0,0,0-15.92,6.26l142.4-225.29a30.266,30.266,0,0,1,16.86-12.83Z" fill="#ccd2d6"/>
        </g>
        <g id="Group_54741" data-name="Group 54741" opacity="0.75">
          <path id="Path_77136" data-name="Path 77136" d="M825.93,592.7a23.274,23.274,0,0,0-19.43-10.39H648.31V447.08a23.61,23.61,0,0,0,1.15-7.28V303.45L825.93,592.71Z" fill="#ccd2d6"/>
        </g>
        <path id="Path_77137" data-name="Path 77137" d="M329.05,555.64l-9.43-22.82a20.281,20.281,0,0,0-18.82-12.59H182.71a20.262,20.262,0,0,0-13.87,5.45l-17.07,15.96L306.65,296.59a33.277,33.277,0,0,1,18.53-14.1l3.87-1.16ZM182.71,514.22H300.8a26.252,26.252,0,0,1,22.25,12.21V289.72a27.16,27.16,0,0,0-11.32,10.06L175.58,515.18a26.551,26.551,0,0,1,7.13-.97Z" fill="#ccd2d6"/>
        <path id="Path_77138" data-name="Path 77138" d="M823.43,594.37a20.327,20.327,0,0,0-16.93-9.05H645.31V446.61l.15-.45a20.729,20.729,0,0,0,1-6.36V292.77L828.49,591.15l-5.06,3.23ZM651.31,579.32H806.5a26.215,26.215,0,0,1,8.62,1.45L652.45,314.13V439.81a26.621,26.621,0,0,1-1.15,7.74V579.32Z" fill="#ccd2d6"/>
      </g>
      <g id="Group_54746" data-name="Group 54746">
        <g id="Group_54743" data-name="Group 54743" opacity="0.25">
          <path id="Path_77139" data-name="Path 77139" d="M649.45,223.77V439.79a23.705,23.705,0,0,1-23.7,23.7H403.48a23.7,23.7,0,0,1-23.7-23.7V144.15a23.7,23.7,0,0,1,23.7-23.7h162.5a23.7,23.7,0,0,1,7.7,1.29v84.11a10.614,10.614,0,0,0,10.62,10.62h64.01a23.521,23.521,0,0,1,1.15,7.3Z" fill="#f8f9fb"/>
        </g>
        <path id="Path_77140" data-name="Path 77140" d="M625.75,466.49H403.48a26.733,26.733,0,0,1-26.7-26.7V144.15a26.733,26.733,0,0,1,26.7-26.7h162.5a26.453,26.453,0,0,1,8.68,1.46l2.02.7v86.25a7.631,7.631,0,0,0,7.62,7.62h66.19l.67,2.08a26.6,26.6,0,0,1,1.29,8.22V439.8a26.733,26.733,0,0,1-26.7,26.7ZM403.48,123.45a20.729,20.729,0,0,0-20.7,20.7V439.79a20.729,20.729,0,0,0,20.7,20.7H625.75a20.722,20.722,0,0,0,20.7-20.7V223.77a20.653,20.653,0,0,0-.45-4.3H584.29a13.636,13.636,0,0,1-13.62-13.62V123.99a20.6,20.6,0,0,0-4.7-.54H403.47Z" fill="#ccd2d6"/>
        <g id="Group_54744" data-name="Group 54744" opacity="0.5">
          <path id="Path_77141" data-name="Path 77141" d="M648.31,216.47H584.3a10.614,10.614,0,0,1-10.62-10.62V121.74a23.664,23.664,0,0,1,11.25,8.17l59.77,79.62a23.6,23.6,0,0,1,3.6,6.93Z" fill="#ccd2d6"/>
        </g>
        <path id="Path_77142" data-name="Path 77142" d="M652.44,219.47H584.3a13.636,13.636,0,0,1-13.62-13.62v-88.3l3.97,1.36a26.56,26.56,0,0,1,12.68,9.21l59.77,79.62a26.636,26.636,0,0,1,4.06,7.81l1.28,3.93Zm-75.76-93.04v79.42a7.631,7.631,0,0,0,7.62,7.62h59.42a18.943,18.943,0,0,0-1.4-2.12l-59.78-79.62a20.482,20.482,0,0,0-5.85-5.29Z" fill="#ccd2d6"/>
        <path id="Path_77143" data-name="Path 77143" d="M647.16,499.52H637.2a3,3,0,0,1,0-6h9.96a25.309,25.309,0,0,0,12.03-3.04,3,3,0,1,1,2.86,5.28,31.271,31.271,0,0,1-14.89,3.77Zm-33.96,0h-24a3,3,0,0,1,0-6h24a3,3,0,0,1,0,6Zm-48,0h-24a3,3,0,0,1,0-6h24a3,3,0,0,1,0,6Zm-48,0h-24a3,3,0,0,1,0-6h24a3,3,0,0,1,0,6Zm-48,0h-24a3,3,0,0,1,0-6h24a3,3,0,0,1,0,6Zm-48,0h-24a3,3,0,0,1,0-6h24a3,3,0,0,1,0,6Zm-47.85-1.38a3.014,3.014,0,0,1-.93-.15,31.243,31.243,0,0,1-19.04-17.34,3,3,0,0,1,5.5-2.38,25.237,25.237,0,0,0,15.38,14.01,3,3,0,0,1-.92,5.85Zm301.38-20.56a2.558,2.558,0,0,1-.67-.08,3,3,0,0,1-2.26-3.59,25.419,25.419,0,0,0,.63-5.65V450.64a3,3,0,0,1,6,0v17.62a30.9,30.9,0,0,1-.79,6.99,3,3,0,0,1-2.92,2.33Zm-320.9-18.8a3,3,0,0,1-3-3v-24a3,3,0,0,1,6,0v24A3,3,0,0,1,353.83,458.78Zm321.6-29.15a3,3,0,0,1-3-3v-24a3,3,0,0,1,6,0v24A3,3,0,0,1,675.43,429.63Zm-321.6-18.85a3,3,0,0,1-3-3v-24a3,3,0,0,1,6,0v24A3,3,0,0,1,353.83,410.78Zm321.6-29.15a3,3,0,0,1-3-3v-24a3,3,0,0,1,6,0v24A3,3,0,0,1,675.43,381.63Zm-321.6-18.85a3,3,0,0,1-3-3v-24a3,3,0,0,1,6,0v24A3,3,0,0,1,353.83,362.78Zm321.6-29.15a3,3,0,0,1-3-3v-24a3,3,0,0,1,6,0v24A3,3,0,0,1,675.43,333.63Zm-321.6-18.85a3,3,0,0,1-3-3v-24a3,3,0,0,1,6,0v24A3,3,0,0,1,353.83,314.78Zm321.6-29.15a3,3,0,0,1-3-3v-24a3,3,0,0,1,6,0v24A3,3,0,0,1,675.43,285.63Zm-321.6-18.85a3,3,0,0,1-3-3v-24a3,3,0,1,1,6,0v24A3,3,0,0,1,353.83,266.78Zm321.6-29.15a3,3,0,0,1-3-3v-24a25.2,25.2,0,0,0-5.06-15.16l-1.95-2.59a3,3,0,1,1,4.8-3.6l1.93,2.57a30.962,30.962,0,0,1,4.75,9.13,31.536,31.536,0,0,1,1.52,9.65v24a3,3,0,0,1-3,3Zm-321.6-18.85a3,3,0,0,1-3-3v-24a3,3,0,1,1,6,0v24A3,3,0,0,1,353.83,218.78Zm299.59-43.89a2.983,2.983,0,0,1-2.4-1.2L636.61,154.5a3,3,0,1,1,4.8-3.6l14.41,19.19a3,3,0,0,1-.6,4.2,2.952,2.952,0,0,1-1.8.6Zm-299.59-4.11a3,3,0,0,1-3-3v-24a3,3,0,1,1,6,0v24A3,3,0,0,1,353.83,170.78ZM624.61,136.5a2.983,2.983,0,0,1-2.4-1.2L607.8,116.11a3,3,0,1,1,4.8-3.6l14.41,19.19a3,3,0,0,1-.6,4.2A2.952,2.952,0,0,1,624.61,136.5ZM353.83,122.78a3,3,0,0,1-3-3v-4.1a31.275,31.275,0,0,1,7.43-20.23,3,3,0,0,1,4.57,3.89,25.254,25.254,0,0,0-6,16.34v4.1a3,3,0,0,1-3,3ZM595.51,98.34a2.986,2.986,0,0,1-2.08-.84,25.337,25.337,0,0,0-9.33-5.7,24.9,24.9,0,0,0-8.22-1.39h-2.3a3,3,0,0,1,0-6h2.3a31.414,31.414,0,0,1,21.72,8.76,3,3,0,0,1-2.08,5.16ZM381.58,90.42a3,3,0,0,1-.05-6h24.05a3,3,0,0,1,0,6h-24Zm168,0h-24a3,3,0,0,1,0-6h24a3,3,0,0,1,0,6Zm-48,0h-24a3,3,0,1,1,0-6h24a3,3,0,0,1,0,6Zm-48,0h-24a3,3,0,1,1,0-6h24a3,3,0,0,1,0,6Z" fill="#ccd2d6"/>
        <g id="Group_54745" data-name="Group 54745" opacity="0.5">
          <path id="Path_77144" data-name="Path 77144" d="M503.74,331.18a16.171,16.171,0,0,1-15.87-19.64,42.839,42.839,0,0,1,1.8-5.93,39.942,39.942,0,0,1,11.87-16.25,78.877,78.877,0,0,0,12.48-12.59,20.525,20.525,0,0,0,4.27-12.59q0-16.74-14.42-16.75a13.391,13.391,0,0,0-10.76,4.88,16.161,16.161,0,0,0-2.3,3.64,16.117,16.117,0,0,1-14.51,9.56h-5.12a16.234,16.234,0,0,1-14.28-23.96,39.482,39.482,0,0,1,8.38-10.59q13.755-12.36,38.6-12.37c16.57,0,29.26,3.81,38.32,11.42s13.59,18.45,13.59,32.5a37.858,37.858,0,0,1-3.66,16.75q-3.66,7.545-11.76,15.42l-12.76,11.87a30.009,30.009,0,0,0-7.54,10.7c-.28.74-.54,1.52-.78,2.35a16.084,16.084,0,0,1-15.54,11.57h0ZM481.46,364.9a17.251,17.251,0,0,1,5.93-13.48,23.445,23.445,0,0,1,29.62,0,18.286,18.286,0,0,1,0,26.96,23.445,23.445,0,0,1-29.62,0,17.19,17.19,0,0,1-5.93-13.48Z" fill="#ccd2d6"/>
        </g>
      </g>
      <path id="Path_77145" data-name="Path 77145" d="M789.96,864.5H196.21L156.54,543.81a26.454,26.454,0,0,1,8.21-22.52,26.178,26.178,0,0,1,17.96-7.06H300.79a26.3,26.3,0,0,1,24.38,16.3l14.94,36.19a20.291,20.291,0,0,0,18.82,12.59H806.5a26.282,26.282,0,0,1,21.92,11.73l.24.36.96,1.61a25.993,25.993,0,0,1,2.88,17.03L789.96,864.5Zm-588.44-6H784.88l41.71-249.46a20.119,20.119,0,0,0-2.34-13.35l-.8-1.29a20.321,20.321,0,0,0-16.94-9.09H358.94a26.278,26.278,0,0,1-24.36-16.3l-14.94-36.19a20.305,20.305,0,0,0-18.83-12.59H182.73a20.37,20.37,0,0,0-20.22,22.85L201.53,858.5Z" fill="#ccd2d6"/>
      <g id="Group_54752" data-name="Group 54752">
        <g id="Group_54747" data-name="Group 54747" opacity="0.5">
          <path id="Path_77146" data-name="Path 77146" d="M325.57,235.48a5.191,5.191,0,0,1,0,7.33l-7.41,7.43a5.215,5.215,0,0,1-7.35,0l-20.39-20.4a5.191,5.191,0,0,0-7.33,0L262.7,250.23a5.191,5.191,0,0,1-7.33,0l-7.41-7.41a5.191,5.191,0,0,1,0-7.33l20.39-20.39a5.191,5.191,0,0,0,0-7.33l-20.4-20.39a5.215,5.215,0,0,1,0-7.35l7.43-7.41a5.191,5.191,0,0,1,7.33,0l20.39,20.39a5.215,5.215,0,0,0,7.35,0l20.39-20.39a5.191,5.191,0,0,1,7.33,0l7.41,7.41a5.191,5.191,0,0,1,0,7.33l-20.39,20.39a5.215,5.215,0,0,0,0,7.35l20.39,20.39Z" fill="#ccd2d6"/>
        </g>
        <g id="Group_54748" data-name="Group 54748" opacity="0.5">
          <path id="Path_77147" data-name="Path 77147" d="M777.17,344.6a3.489,3.489,0,0,1,0,4.93l-4.99,5a3.513,3.513,0,0,1-4.95,0L753.51,340.8a3.489,3.489,0,0,0-4.93,0l-13.72,13.72a3.489,3.489,0,0,1-4.93,0l-4.99-4.99a3.489,3.489,0,0,1,0-4.93l13.72-13.72a3.489,3.489,0,0,0,0-4.93l-13.73-13.72a3.513,3.513,0,0,1,0-4.95l5-4.99a3.489,3.489,0,0,1,4.93,0l13.72,13.72a3.513,3.513,0,0,0,4.95,0l13.72-13.72a3.489,3.489,0,0,1,4.93,0l4.99,4.99a3.489,3.489,0,0,1,0,4.93l-13.72,13.72a3.513,3.513,0,0,0,0,4.95Z" fill="#ccd2d6"/>
        </g>
        <g id="Group_54749" data-name="Group 54749" opacity="0.5">
          <path id="Path_77148" data-name="Path 77148" d="M711.37,141.49a2.354,2.354,0,0,1,0,3.33L708,148.19a2.366,2.366,0,0,1-3.34,0l-9.26-9.27a2.354,2.354,0,0,0-3.33,0l-9.26,9.26a2.354,2.354,0,0,1-3.33,0l-3.37-3.37a2.354,2.354,0,0,1,0-3.33l9.26-9.26a2.354,2.354,0,0,0,0-3.33l-9.27-9.26a2.366,2.366,0,0,1,0-3.34l3.37-3.37a2.354,2.354,0,0,1,3.33,0l9.26,9.26a2.366,2.366,0,0,0,3.34,0l9.26-9.26a2.354,2.354,0,0,1,3.33,0l3.37,3.37a2.354,2.354,0,0,1,0,3.33l-9.26,9.26a2.366,2.366,0,0,0,0,3.34l9.26,9.26Z" fill="#ccd2d6"/>
        </g>
        <g id="Group_54750" data-name="Group 54750" opacity="0.5">
          <path id="Path_77149" data-name="Path 77149" d="M861.87,826.59a2.354,2.354,0,0,1,0,3.33l-3.37,3.37a2.366,2.366,0,0,1-3.34,0l-9.26-9.27a2.354,2.354,0,0,0-3.33,0l-9.26,9.26a2.354,2.354,0,0,1-3.33,0l-3.37-3.37a2.354,2.354,0,0,1,0-3.33l9.26-9.26a2.354,2.354,0,0,0,0-3.33l-9.27-9.26a2.366,2.366,0,0,1,0-3.34l3.37-3.37a2.354,2.354,0,0,1,3.33,0l9.26,9.26a2.366,2.366,0,0,0,3.34,0l9.26-9.26a2.354,2.354,0,0,1,3.33,0l3.37,3.37a2.354,2.354,0,0,1,0,3.33l-9.26,9.26a2.366,2.366,0,0,0,0,3.34l9.26,9.26Z" fill="#ccd2d6"/>
        </g>
        <g id="Group_54751" data-name="Group 54751" opacity="0.5">
          <path id="Path_77150" data-name="Path 77150" d="M125.41,709.79a2.354,2.354,0,0,1,0,3.33l-3.37,3.37a2.366,2.366,0,0,1-3.34,0l-9.26-9.27a2.354,2.354,0,0,0-3.33,0l-9.26,9.26a2.354,2.354,0,0,1-3.33,0l-3.37-3.37a2.354,2.354,0,0,1,0-3.33l9.26-9.26a2.354,2.354,0,0,0,0-3.33l-9.27-9.26a2.366,2.366,0,0,1,0-3.34l3.37-3.37a2.354,2.354,0,0,1,3.33,0l9.26,9.26a2.366,2.366,0,0,0,3.34,0l9.26-9.26a2.354,2.354,0,0,1,3.33,0l3.37,3.37a2.354,2.354,0,0,1,0,3.33l-9.26,9.26a2.366,2.366,0,0,0,0,3.34l9.26,9.26Z" fill="#ccd2d6"/>
        </g>
      </g>
    </g>
  </g>
</svg>
