<svg xmlns="http://www.w3.org/2000/svg" width="20.909" height="19.389" viewBox="0 0 20.909 19.389">
  <g id="PassKey" transform="translate(-2 -3)">
    <path id="Path_77090" data-name="Path 77090" d="M18.2,13.865a.808.808,0,0,0-.173,1.2,1.015,1.015,0,0,1,0,1.435l-.154.154a1.232,1.232,0,0,0,0,1.742,1.232,1.232,0,0,1,0,1.742l-.99.99a.653.653,0,0,1-.924,0l-1.479-1.478a1.307,1.307,0,0,1-.383-.924v-4.5a4.066,4.066,0,1,1,4.1-.363Zm-2.36-5.054a1.162,1.162,0,1,1-1.162,1.162A1.162,1.162,0,0,1,15.843,8.812Z" transform="translate(3 1.07)" fill="#013c68" fill-rule="evenodd"/>
    <path id="Path_77091" data-name="Path 77091" d="M13.371,11.173a14.231,14.231,0,0,0-3.24-.338C3.525,10.834,2,14.286,2,16a3.074,3.074,0,0,0,3.049,3.1H15.213q.073,0,.145,0V13.867A5.824,5.824,0,0,1,13.371,11.173Z" transform="translate(0 2.403)" fill="#013c68"/>
    <path id="Path_77092" data-name="Path 77092" d="M8.92,10.841A3.92,3.92,0,1,0,5,6.92,3.92,3.92,0,0,0,8.92,10.841Z" transform="translate(0.92)" fill="#013c68"/>
  </g>
</svg>
