<svg xmlns="http://www.w3.org/2000/svg" width="21.5" height="17.5" viewBox="0 0 21.5 17.5">
  <g id="password" transform="translate(-1.25 -3.25)">
    <path id="Path_77112" data-name="Path 77112" d="M12.75,10a.75.75,0,0,0-1.5,0v.7l-.607-.351a.75.75,0,1,0-.75,1.3L10.5,12l-.607.351a.75.75,0,1,0,.75,1.3l.608-.351V14a.75.75,0,0,0,1.5,0v-.7l.607.35a.75.75,0,0,0,.75-1.3L13.5,12l.607-.35a.75.75,0,0,0-.75-1.3l-.606.35Z" fill="#013c68"/>
    <path id="Path_77113" data-name="Path 77113" d="M6.733,9.25a.75.75,0,0,1,.75.75v.7l.606-.35a.75.75,0,1,1,.75,1.3L8.232,12l.607.351a.75.75,0,1,1-.75,1.3l-.607-.35V14a.75.75,0,0,1-1.5,0v-.7l-.608.351a.75.75,0,1,1-.75-1.3L5.232,12l-.607-.35a.75.75,0,1,1,.75-1.3l.607.351V10A.75.75,0,0,1,6.733,9.25Z" fill="#013c68"/>
    <path id="Path_77114" data-name="Path 77114" d="M18.018,10a.75.75,0,0,0-1.5,0v.7l-.608-.351a.75.75,0,1,0-.75,1.3l.607.35-.607.351a.75.75,0,1,0,.75,1.3l.608-.351V14a.75.75,0,0,0,1.5,0v-.7l.607.35a.75.75,0,1,0,.75-1.3L18.768,12l.607-.35a.75.75,0,0,0-.75-1.3l-.606.35Z" fill="#013c68"/>
    <path id="Path_77115" data-name="Path 77115" d="M9.944,3.25A36.527,36.527,0,0,0,5.511,3.4a4.711,4.711,0,0,0-2.87,1.238A4.711,4.711,0,0,0,1.4,7.511a36.527,36.527,0,0,0-.153,4.433v.113A36.526,36.526,0,0,0,1.4,16.489a4.711,4.711,0,0,0,1.238,2.87A4.712,4.712,0,0,0,5.511,20.6a36.546,36.546,0,0,0,4.433.153h4.113a36.546,36.546,0,0,0,4.433-.153,4.712,4.712,0,0,0,2.87-1.238,4.712,4.712,0,0,0,1.238-2.87,36.545,36.545,0,0,0,.153-4.432v-.113A36.547,36.547,0,0,0,22.6,7.511a4.712,4.712,0,0,0-1.238-2.87A4.711,4.711,0,0,0,18.489,3.4a36.526,36.526,0,0,0-4.433-.153ZM3.7,5.7A3.247,3.247,0,0,1,5.711,4.89,35.992,35.992,0,0,1,10,4.75h4a35.994,35.994,0,0,1,4.289.14A3.247,3.247,0,0,1,20.3,5.7a3.247,3.247,0,0,1,.812,2.009A35.985,35.985,0,0,1,21.25,12a35.986,35.986,0,0,1-.14,4.289A3.247,3.247,0,0,1,20.3,18.3a3.247,3.247,0,0,1-2.009.812A35.986,35.986,0,0,1,14,19.25H10a35.984,35.984,0,0,1-4.289-.14A3.247,3.247,0,0,1,3.7,18.3a3.247,3.247,0,0,1-.812-2.009A35.994,35.994,0,0,1,2.75,12a35.993,35.993,0,0,1,.14-4.289A3.247,3.247,0,0,1,3.7,5.7Z" fill="#013c68" fill-rule="evenodd"/>
  </g>
</svg>
