<svg id="passuser" xmlns="http://www.w3.org/2000/svg" width="18.659" height="23" viewBox="0 0 18.659 23">
  <g id="Group_54523" data-name="Group 54523" transform="translate(18.659 7.262) rotate(90)">
    <path id="Stroke_1" data-name="Stroke 1" d="M1.675,0h0A1.659,1.659,0,0,1,3.35,1.639,1.659,1.659,0,0,1,1.675,3.278,1.659,1.659,0,0,1,0,1.639,1.659,1.659,0,0,1,1.675,0Z" fill="#013c68"/>
    <path id="Stroke_3" data-name="Stroke 3" d="M4.55,2.111a.478.478,0,0,1-.483-.472V.945H.483A.478.478,0,0,1,0,.472.478.478,0,0,1,.483,0H4.55a.478.478,0,0,1,.483.472V1.639A.478.478,0,0,1,4.55,2.111Z" transform="translate(2.387 1.167)" fill="#013c68"/>
    <path id="Stroke_5" data-name="Stroke 5" d="M.483,2.111A.478.478,0,0,1,0,1.639V.472A.478.478,0,0,1,.483,0,.478.478,0,0,1,.966.472V1.639A.478.478,0,0,1,.483,2.111Z" transform="translate(4.633 1.167)" fill="#013c68"/>
  </g>
  <g id="Profile">
    <path id="Stroke_1-2" data-name="Stroke 1" d="M7.482,9a17.011,17.011,0,0,1-5.476-.682C-.272,7.513-.75,6.06-.75,4.983A5.138,5.138,0,0,1,1.818.881,10.249,10.249,0,0,1,7.482-.75,10.292,10.292,0,0,1,13.136.868,5.116,5.116,0,0,1,15.715,4.96c0,1.077-.476,2.532-2.745,3.344A16.81,16.81,0,0,1,7.482,9Zm0-8.087A8.757,8.757,0,0,0,2.71,2.27,3.541,3.541,0,0,0,.876,4.983c0,1.562,2.223,2.354,6.606,2.354s6.606-.8,6.606-2.377a3.522,3.522,0,0,0-1.84-2.7A8.8,8.8,0,0,0,7.482.912Z" transform="translate(0.75 14.001)" fill="#013c68"/>
    <path id="Stroke_3-2" data-name="Stroke 3" d="M4.819,10.631H4.785A5.458,5.458,0,0,1,.862,8.956,5.7,5.7,0,0,1-.75,4.938,5.637,5.637,0,0,1,4.819-.75a5.637,5.637,0,0,1,5.568,5.691A5.636,5.636,0,0,1,4.819,10.631Zm0-9.719A3.991,3.991,0,0,0,.876,4.941a4.033,4.033,0,0,0,1.14,2.844A3.858,3.858,0,0,0,4.788,8.969h.031A3.99,3.99,0,0,0,8.76,4.941,3.991,3.991,0,0,0,4.819.912Z" transform="translate(3.406 0.75)" fill="#013c68"/>
  </g>
</svg>
