<svg xmlns="http://www.w3.org/2000/svg" width="21.5" height="21.5" viewBox="0 0 21.5 21.5">
  <g id="redo" transform="translate(-1.25 -1.25)">
    <path id="Path_77119" data-name="Path 77119" d="M15.759,6.873a.75.75,0,1,0-1.017,1.1l.841.776H9.962a4.212,4.212,0,1,0,0,8.423H14.5a.75.75,0,1,0,0-1.5H9.962a2.712,2.712,0,1,1,0-5.423h5.62l-.841.776a.75.75,0,0,0,1.017,1.1l2.25-2.077a.75.75,0,0,0,0-1.1Z" transform="translate(23.924 -0.076) rotate(90)" fill="#013c68"/>
    <path id="Path_77120" data-name="Path 77120" d="M11.943,1.25a45.649,45.649,0,0,0-5.529.19,5.7,5.7,0,0,0-3.48,1.494A5.7,5.7,0,0,0,1.44,6.414a45.649,45.649,0,0,0-.19,5.529v.115a45.649,45.649,0,0,0,.19,5.529,5.7,5.7,0,0,0,1.494,3.48,5.7,5.7,0,0,0,3.48,1.494,45.668,45.668,0,0,0,5.529.19h.115a45.667,45.667,0,0,0,5.529-.19,5.7,5.7,0,0,0,3.48-1.494,5.7,5.7,0,0,0,1.494-3.48,45.667,45.667,0,0,0,.19-5.529v-.115a45.667,45.667,0,0,0-.19-5.529,5.7,5.7,0,0,0-1.494-3.48,5.7,5.7,0,0,0-3.48-1.494,45.649,45.649,0,0,0-5.529-.19ZM3.995,3.995A4.24,4.24,0,0,1,6.614,2.926,45.124,45.124,0,0,1,12,2.75a45.124,45.124,0,0,1,5.386.176,4.241,4.241,0,0,1,2.619,1.068,4.24,4.24,0,0,1,1.068,2.619A45.118,45.118,0,0,1,21.25,12a45.118,45.118,0,0,1-.176,5.386,4.24,4.24,0,0,1-1.068,2.619,4.24,4.24,0,0,1-2.619,1.068A45.118,45.118,0,0,1,12,21.25a45.118,45.118,0,0,1-5.386-.176,4.24,4.24,0,0,1-2.619-1.068,4.241,4.241,0,0,1-1.068-2.619A45.124,45.124,0,0,1,2.75,12a45.124,45.124,0,0,1,.176-5.386A4.24,4.24,0,0,1,3.995,3.995Z" fill="#013c68" fill-rule="evenodd"/>
  </g>
</svg>
