<svg xmlns="http://www.w3.org/2000/svg" width="48.698" height="48.705" viewBox="0 0 48.698 48.705">
  <g id="sms" transform="translate(0.752 0.75)">
    <path id="Stroke_11" data-name="Stroke 11" d="M1.781,4.031h-.02a2.265,2.265,0,0,1,0-4.531h.02a2.265,2.265,0,0,1,0,4.531Z" transform="translate(30.768 22.773)" fill="#013c68"/>
    <path id="Stroke_13" data-name="Stroke 13" d="M1.781,4.031h-.02a2.265,2.265,0,0,1,0-4.531h.02a2.265,2.265,0,0,1,0,4.531Z" transform="translate(21.686 22.773)" fill="#013c68"/>
    <path id="Stroke_15" data-name="Stroke 15" d="M1.781,4.031h-.02a2.265,2.265,0,0,1,0-4.531h.02a2.265,2.265,0,0,1,0,4.531Z" transform="translate(12.604 22.773)" fill="#013c68"/>
    <path id="Stroke_4" data-name="Stroke 4" d="M23.608,47.955a24.622,24.622,0,0,1-10.081-2.172h-.07a26.111,26.111,0,0,0-2.635.28,39.306,39.306,0,0,1-4.968.455c-1.921,0-3.189-.373-3.99-1.173-1.574-1.574-1.291-4.707-.72-8.962a25.263,25.263,0,0,0,.281-2.7A24.36,24.36,0,1,1,23.608,47.955ZM13.458,42.385a3.258,3.258,0,0,1,1.236.2l.079.034a21.192,21.192,0,0,0,8.836,1.941A20.958,20.958,0,0,0,38.422,8.781a20.961,20.961,0,0,0-29.631,0,21.058,21.058,0,0,0-4.2,23.653q.018.039.034.079c.336.836.209,1.929-.113,4.322-.172,1.28-.367,2.73-.414,3.976a5.428,5.428,0,0,0,.178,2.119,4.349,4.349,0,0,0,1.578.189,36.938,36.938,0,0,0,4.516-.425A26.619,26.619,0,0,1,13.458,42.385Z" fill="#013c68"/>
  </g>
</svg>
