<svg xmlns="http://www.w3.org/2000/svg" width="26.804" height="28.604" viewBox="0 0 26.804 28.604">
  <g id="unlink_User" data-name="unlink User" transform="translate(0.75 0.75)">
    <path id="Stroke_1" data-name="Stroke 1" d="M9.824,11.144a22.923,22.923,0,0,1-7.036-.833C-.136,9.33-.75,7.549-.75,6.227-.75,2.445,4.092-.75,9.824-.75A13.808,13.808,0,0,1,17.076,1.2c2.111,1.323,3.322,3.144,3.322,5,0,1.322-.611,3.105-3.523,4.1A22.645,22.645,0,0,1,9.824,11.144Zm0-9.866A11.867,11.867,0,0,0,3.641,2.932c-1.5.949-2.364,2.15-2.364,3.3,0,1.917,2.875,2.889,8.547,2.889a21.1,21.1,0,0,0,6.4-.741c1.926-.655,2.149-1.556,2.149-2.176,0-1.14-.864-2.335-2.371-3.279A11.928,11.928,0,0,0,9.824,1.278Z" transform="translate(0 16.71)" fill="#fd5675"/>
    <path id="Stroke_3" data-name="Stroke 3" d="M6.392,13.534H6.349A7.122,7.122,0,0,1-.75,6.388a7.142,7.142,0,1,1,7.142,7.146Zm0-12.256A5.12,5.12,0,0,0,1.278,6.392a5.094,5.094,0,0,0,5.075,5.114h.04a5.114,5.114,0,0,0,0-10.228Z" transform="translate(3.432 0)" fill="#fd5675"/>
    <path id="Stroke_7" data-name="Stroke 7" d="M5.793,1.778H.264a1.014,1.014,0,0,1,0-2.028H5.793a1.014,1.014,0,0,1,0,2.028Z" transform="translate(19.247 10.293)" fill="#fd5675"/>
  </g>
</svg>
