<svg xmlns="http://www.w3.org/2000/svg" width="30.26" height="17.872" viewBox="0 0 30.26 17.872">
  <g id="Up" transform="translate(0 0)">
    <g id="Arrow_-_Left_Circle" data-name="Arrow - Left Circle" transform="translate(0 0)">
      <path id="Stroke_3" data-name="Stroke 3" d="M14.384-.75c-1.709,0-4.36.819-9.732,7.206-2.681,3.188-4.84,6.325-4.93,6.457a2.688,2.688,0,0,0,4.433,3.042c.032-.046,1.969-2.858,4.347-5.721,3.749-4.515,5.454-5.412,5.882-5.579.428.168,2.132,1.065,5.878,5.579,2.384,2.872,4.324,5.693,4.343,5.721a2.688,2.688,0,0,0,4.434-3.041c-.091-.132-2.247-3.269-4.927-6.457C18.744.069,16.093-.75,14.384-.75Z" transform="translate(0.75 0.75)" fill="#013c68"/>
    </g>
  </g>
</svg>
