<svg xmlns="http://www.w3.org/2000/svg" width="25.099" height="24.105" viewBox="0 0 25.099 24.105">
  <g id="WorkMail" transform="translate(0.75 0.75)">
    <path id="Stroke_1" data-name="Stroke 1" d="M7,5.788c-1.417,0-3.13-.868-5.093-2.579A24.987,24.987,0,0,1-.534.756.916.916,0,1,1,.867-.424C2.3,1.269,5.224,3.956,7,3.956s4.673-2.685,6.085-4.377A.916.916,0,0,1,14.491.753a24.647,24.647,0,0,1-2.418,2.455C10.124,4.92,8.417,5.788,7,5.788Z" transform="translate(4.815 7.533)" fill="#013c68"/>
    <path id="Stroke_3" data-name="Stroke 3" d="M11.8-.75c4.78,0,7.778.83,9.722,2.69S24.349,6.7,24.349,11.3s-.872,7.49-2.827,9.362-4.942,2.691-9.722,2.691-7.778-.83-9.722-2.691S-.75,15.9-.75,11.3.122,3.812,2.077,1.94,7.019-.75,11.8-.75Zm0,22.272c8.213,0,10.717-2.388,10.717-10.22S20.013,1.082,11.8,1.082,1.082,3.47,1.082,11.3,3.586,21.522,11.8,21.522Z" transform="translate(0 0)" fill="#013c68"/>
  </g>
</svg>
